<svg width="27" height="31" viewBox="0 0 27 31" fill="none" xmlns="http://www.w3.org/2000/svg">
<path d="M13.286 15.5C14.8188 15.5 16.3172 15.0455 17.5917 14.1939C18.8662 13.3423 19.8595 12.1319 20.4461 10.7158C21.0327 9.29967 21.1861 7.74141 20.8871 6.23805C20.5881 4.7347 19.8499 3.35378 18.7661 2.26993C17.6822 1.18607 16.3013 0.447953 14.798 0.148918C13.2946 -0.150118 11.7363 0.00335794 10.3202 0.589937C8.90409 1.17652 7.6937 2.16985 6.84212 3.44433C5.99054 4.71881 5.53601 6.2172 5.53601 7.75C5.53601 9.80543 6.35253 11.7767 7.80593 13.2301C9.25934 14.6835 11.2306 15.5 13.286 15.5ZM13.286 2.21429C14.3809 2.21429 15.4511 2.53895 16.3615 3.14722C17.2718 3.7555 17.9814 4.62006 18.4003 5.63158C18.8193 6.6431 18.929 7.75614 18.7154 8.82997C18.5018 9.90379 17.9745 10.8902 17.2003 11.6643C16.4262 12.4385 15.4398 12.9658 14.366 13.1793C13.2921 13.3929 12.1791 13.2833 11.1676 12.8643C10.1561 12.4453 9.2915 11.7358 8.68323 10.8255C8.07496 9.91514 7.7503 8.84486 7.7503 7.75C7.7503 6.28184 8.33352 4.87381 9.37167 3.83566C10.4098 2.79751 11.8178 2.21429 13.286 2.21429Z" fill="black"/>
<path d="M14.3929 17.7144H12.1786C8.94861 17.7144 5.85094 18.9975 3.56702 21.2814C1.2831 23.5653 0 26.663 0 29.8929C0 30.1866 0.116645 30.4682 0.324275 30.6758C0.531904 30.8834 0.81351 31.0001 1.10714 31.0001H25.4643C25.7579 31.0001 26.0395 30.8834 26.2471 30.6758C26.4548 30.4682 26.5714 30.1866 26.5714 29.8929C26.5714 26.663 25.2883 23.5653 23.0044 21.2814C20.7205 18.9975 17.6228 17.7144 14.3929 17.7144ZM2.28071 28.7858C2.55295 26.3508 3.71282 24.1014 5.53868 22.4676C7.36454 20.8337 9.72839 19.9298 12.1786 19.9286H14.3929C16.843 19.9298 19.2069 20.8337 21.0327 22.4676C22.8586 24.1014 24.0185 26.3508 24.2907 28.7858H2.28071Z" fill="black"/>
</svg>
