<svg width="32" height="32" viewBox="0 0 32 32" fill="none" xmlns="http://www.w3.org/2000/svg">
<g clip-path="url(#clip0_1_40)">
<path d="M25.0281 8.63222C24.9363 8.34785 24.6703 8.15521 24.3768 8.15521H21.9V7.34797C21.9 4.40338 19.5058 2 16.5521 2C13.5983 2 11.2041 4.3942 11.2041 7.34797V8.15521H8.72732C8.4246 8.15521 8.16775 8.34785 8.07602 8.63222L1.03101 30.391C0.966798 30.602 1.00349 30.8313 1.13191 31.0056C1.26034 31.1799 1.47132 31.29 1.69148 31.29H31.4126C31.7887 31.29 32.1006 30.9781 32.1006 30.602C32.1006 30.5103 32.0823 30.4185 32.0456 30.3452L25.0281 8.63222ZM12.5709 7.34797C12.5709 5.15558 14.3505 3.37598 16.5429 3.37598C18.7353 3.37598 20.5149 5.15558 20.5149 7.34797V8.15521H12.5709V7.34797ZM2.62715 29.9232L9.2135 9.54036H11.1949V11.8061C11.1949 12.1822 11.5068 12.4941 11.8829 12.4941C12.259 12.4941 12.5709 12.1822 12.5709 11.8061V9.54036H20.5149V11.8061C20.5149 12.1822 20.8268 12.4941 21.2029 12.4941C21.579 12.4941 21.8908 12.1822 21.8908 11.8061V9.54036H23.8723L30.4586 29.9232H2.62715Z" fill="black"/>
<path d="M8.18616 25.988C8.00269 25.988 7.8284 26.0614 7.69998 26.1898C7.57156 26.3183 7.49817 26.4926 7.49817 26.676C7.49817 26.8595 7.57156 27.0338 7.69998 27.1622C7.8284 27.2906 8.00269 27.364 8.18616 27.364C8.36962 27.364 8.54391 27.2906 8.67234 27.1622C8.80076 27.0338 8.87415 26.8595 8.87415 26.676C8.87415 26.4926 8.80076 26.3183 8.67234 26.1898C8.54391 26.0614 8.36962 25.988 8.18616 25.988Z" fill="black"/>
<path d="M12.3693 25.988C12.1858 25.988 12.0115 26.0614 11.8831 26.1898C11.7547 26.3183 11.6813 26.4926 11.6813 26.676C11.6813 26.8595 11.7547 27.0338 11.8831 27.1622C12.0115 27.2906 12.1858 27.364 12.3693 27.364C12.5527 27.364 12.727 27.2906 12.8554 27.1622C12.9839 27.0338 13.0573 26.8595 13.0573 26.676C13.0573 26.4926 12.9839 26.3183 12.8554 26.1898C12.727 26.0614 12.5436 25.988 12.3693 25.988Z" fill="black"/>
<path d="M16.5428 25.988C16.3594 25.988 16.1851 26.0614 16.0567 26.1898C15.9282 26.3183 15.8549 26.4926 15.8549 26.676C15.8549 26.8595 15.9282 27.0338 16.0567 27.1622C16.1851 27.2906 16.3594 27.364 16.5428 27.364C16.7263 27.364 16.9006 27.2906 17.029 27.1622C17.1575 27.0338 17.2308 26.8595 17.2308 26.676C17.2308 26.4926 17.1575 26.3183 17.029 26.1898C16.9006 26.0614 16.7263 25.988 16.5428 25.988Z" fill="black"/>
<path d="M20.7167 25.988C20.5333 25.988 20.359 26.0614 20.2306 26.1898C20.1021 26.3183 20.0287 26.4926 20.0287 26.676C20.0287 26.8595 20.1021 27.0338 20.2306 27.1622C20.359 27.2906 20.5333 27.364 20.7167 27.364C20.9002 27.364 21.0745 27.2906 21.2029 27.1622C21.3313 27.0338 21.4047 26.8595 21.4047 26.676C21.4047 26.4926 21.3313 26.3183 21.2029 26.1898C21.0837 26.0614 20.9002 25.988 20.7167 25.988Z" fill="black"/>
<path d="M24.8996 27.364C25.0831 27.364 25.2574 27.2906 25.3858 27.1622C25.5142 27.0338 25.5876 26.8595 25.5876 26.676C25.5876 26.4926 25.5142 26.3183 25.3858 26.1898C25.2574 26.0614 25.0831 25.988 24.8996 25.988C24.7161 25.988 24.5418 26.0614 24.4134 26.1898C24.285 26.3183 24.2116 26.4926 24.2116 26.676C24.2116 26.8595 24.285 27.0338 24.4134 27.1622C24.5418 27.2906 24.7161 27.364 24.8996 27.364Z" fill="black"/>
</g>
<defs>
<clipPath id="clip0_1_40">
<rect width="32" height="32" fill="white"/>
</clipPath>
</defs>
</svg>
