<svg width="125" height="24" viewBox="0 0 125 24" fill="none" xmlns="http://www.w3.org/2000/svg">
<path d="M10.497 16.31C10.197 16.31 9.87703 16.31 9.53703 16.31C9.19703 16.29 8.88703 16.26 8.60703 16.22L8.96703 14.36H9.95703C11.077 14.36 12.017 14.1 12.777 13.58C13.557 13.04 14.137 12.36 14.517 11.54C14.917 10.7 15.117 9.83 15.117 8.93C15.117 7.81 14.857 6.91 14.337 6.23C13.817 5.55 13.127 5.06 12.267 4.76C11.427 4.44 10.477 4.28 9.41703 4.28C8.57703 4.28 7.72703 4.41 6.86703 4.67C6.00703 4.91 5.21703 5.28 4.49703 5.78C3.79703 6.26 3.22703 6.87 2.78703 7.61C2.34703 8.35 2.12703 9.22 2.12703 10.22C2.12703 10.78 2.17703 11.31 2.27703 11.81C2.39703 12.29 2.61703 12.86 2.93703 13.52C2.65703 13.8 2.31703 14.01 1.91703 14.15C1.53703 14.27 1.18703 14.33 0.867031 14.33C0.0670314 14.33 -0.612969 14.15 -1.17297 13.79C-1.73297 13.41 -2.16297 12.92 -2.46297 12.32C-2.74297 11.7 -2.88297 11.04 -2.88297 10.34C-2.88297 9.06 -2.54297 7.93 -1.86297 6.95C-1.16297 5.95 -0.222969 5.12 0.957031 4.46C2.13703 3.78 3.46703 3.27 4.94703 2.93C6.42703 2.57 7.95703 2.39 9.53703 2.39C11.037 2.39 12.437 2.52 13.737 2.78C15.057 3.04 16.207 3.45 17.187 4.01C18.167 4.55 18.937 5.23 19.497 6.05C20.057 6.87 20.337 7.85 20.337 8.99C20.337 10.13 20.067 11.15 19.527 12.05C18.987 12.95 18.257 13.72 17.337 14.36C16.417 14.98 15.367 15.46 14.187 15.8C13.007 16.14 11.777 16.31 10.497 16.31ZM4.31703 23.6C3.67703 23.6 3.08703 23.48 2.54703 23.24C2.00703 23.02 1.68703 22.7 1.58703 22.28C1.88703 22.12 2.11703 21.92 2.27703 21.68C2.45703 21.42 2.59703 21.08 2.69703 20.66C2.81703 20.24 2.93703 19.7 3.05703 19.04L4.88703 9.89C5.06703 9.01 5.30703 8.26 5.60703 7.64C5.92703 7.02 6.37703 6.55 6.95703 6.23C7.53703 5.91 8.30703 5.75 9.26703 5.75C9.98703 5.75 10.617 5.89 11.157 6.17C11.697 6.43 11.997 6.78 12.057 7.22C11.577 7.44 11.247 7.77 11.067 8.21C10.887 8.63 10.717 9.23 10.557 10.01L8.72703 19.25C8.54703 20.21 8.28703 21.02 7.94703 21.68C7.62703 22.32 7.17703 22.8 6.59703 23.12C6.03703 23.44 5.27703 23.6 4.31703 23.6ZM23.3788 23.6C22.4788 23.6 21.7388 23.37 21.1588 22.91C20.5788 22.43 20.2888 21.72 20.2888 20.78C20.2888 20.38 20.3288 19.87 20.4088 19.25C20.5088 18.63 20.6288 17.95 20.7688 17.21C20.9088 16.45 21.0688 15.65 21.2488 14.81C21.4288 13.97 21.6088 13.13 21.7888 12.29C21.9688 11.45 22.1388 10.64 22.2988 9.86C22.4788 9.06 22.6288 8.33 22.7488 7.67C22.9688 6.53 23.1288 5.54 23.2288 4.7C23.3488 3.86 23.4088 3.15 23.4088 2.57C23.4088 2.27 23.3888 2 23.3488 1.76C23.3288 1.5 23.2888 1.28 23.2288 1.1C23.6288 0.879999 24.0788 0.709998 24.5788 0.589999C25.0988 0.449999 25.5988 0.38 26.0788 0.38C26.7788 0.38 27.3988 0.559999 27.9388 0.919998C28.4788 1.26 28.7488 1.88 28.7488 2.78C28.7488 3 28.7188 3.33 28.6588 3.77C28.6188 4.19 28.5488 4.68 28.4488 5.24C28.3688 5.8 28.2588 6.41 28.1188 7.07C27.9988 7.71 27.8688 8.37 27.7288 9.05C27.3088 11.09 26.9588 12.76 26.6788 14.06C26.4188 15.36 26.2088 16.4 26.0488 17.18C25.9088 17.94 25.7988 18.51 25.7188 18.89C25.6588 19.27 25.6188 19.54 25.5988 19.7C25.5788 19.86 25.5688 20 25.5688 20.12C25.5688 20.48 25.6688 20.81 25.8688 21.11C26.0688 21.39 26.3888 21.54 26.8288 21.56C26.7088 22.04 26.4588 22.43 26.0788 22.73C25.7188 23.03 25.2988 23.25 24.8188 23.39C24.3588 23.53 23.8788 23.6 23.3788 23.6ZM33.6999 23.6C32.5999 23.6 31.6999 23.36 30.9999 22.88C30.2999 22.38 29.7799 21.7 29.4399 20.84C29.1199 19.96 28.9599 18.93 28.9599 17.75C28.9599 16.25 29.1799 14.86 29.6199 13.58C30.0799 12.28 30.7199 11.15 31.5399 10.19C32.3599 9.21 33.3099 8.45 34.3899 7.91C35.4699 7.37 36.6499 7.1 37.9299 7.1C38.9499 7.1 39.9999 7.3 41.0799 7.7L45.3699 7.16L43.1499 18.86C43.1299 19.04 43.0999 19.25 43.0599 19.49C43.0199 19.73 42.9999 19.94 42.9999 20.12C42.9999 20.48 43.0999 20.81 43.2999 21.11C43.5199 21.39 43.8599 21.54 44.3199 21.56C44.1599 22.04 43.8999 22.43 43.5399 22.73C43.1799 23.03 42.7599 23.25 42.2799 23.39C41.8199 23.53 41.3499 23.6 40.8699 23.6C40.2499 23.6 39.6799 23.46 39.1599 23.18C38.6399 22.9 38.2899 22.47 38.1099 21.89C37.5899 22.41 36.9599 22.82 36.2199 23.12C35.4799 23.44 34.6399 23.6 33.6999 23.6ZM35.4399 21.71C36.0399 21.71 36.5199 21.5 36.8799 21.08C37.2599 20.64 37.5599 20.11 37.7799 19.49C37.9999 18.87 38.1599 18.27 38.2599 17.69L39.6999 9.53C39.3999 9.31 39.0899 9.15 38.7699 9.05C38.4699 8.95 38.1999 8.9 37.9599 8.9C37.3799 8.9 36.8699 9.13 36.4299 9.59C35.9899 10.05 35.6099 10.67 35.2899 11.45C34.9899 12.21 34.7399 13.05 34.5399 13.97C34.3599 14.87 34.2299 15.79 34.1499 16.73C34.0699 17.65 34.0299 18.49 34.0299 19.25C34.0299 19.87 34.1199 20.44 34.2999 20.96C34.4799 21.46 34.8599 21.71 35.4399 21.71ZM58.7216 23.6C57.8016 23.6 57.0516 23.37 56.4716 22.91C55.8916 22.43 55.6016 21.7 55.6016 20.72C55.6016 20.28 55.6616 19.73 55.7816 19.07C55.9216 18.41 56.0716 17.71 56.2316 16.97C56.4116 16.23 56.5816 15.49 56.7416 14.75C56.9216 14.01 57.0716 13.32 57.1916 12.68C57.3116 12.02 57.3716 11.47 57.3716 11.03C57.3716 10.57 57.2816 10.19 57.1016 9.89C56.9216 9.57 56.6016 9.41 56.1416 9.41C55.5416 9.41 55.0416 9.66 54.6416 10.16C54.2416 10.66 53.9116 11.27 53.6516 11.99C53.4116 12.71 53.2216 13.41 53.0816 14.09L51.3716 23L46.0016 23.54L49.1216 7.7L53.5016 7.16L53.0516 10.04C53.5916 9 54.3316 8.25 55.2716 7.79C56.2316 7.33 57.2816 7.1 58.4216 7.1C59.7216 7.1 60.7416 7.38 61.4816 7.94C62.2216 8.5 62.5916 9.4 62.5916 10.64C62.5916 11.16 62.5316 11.75 62.4116 12.41C62.2916 13.07 62.1416 13.77 61.9616 14.51C61.8016 15.23 61.6416 15.94 61.4816 16.64C61.3216 17.32 61.1816 17.96 61.0616 18.56C60.9416 19.14 60.8816 19.63 60.8816 20.03C60.8816 20.45 60.9716 20.8 61.1516 21.08C61.3516 21.36 61.6916 21.52 62.1716 21.56C61.9516 22.26 61.5016 22.77 60.8216 23.09C60.1616 23.43 59.4616 23.6 58.7216 23.6ZM76.3583 23.6C75.4383 23.6 74.6883 23.37 74.1083 22.91C73.5283 22.43 73.2383 21.7 73.2383 20.72C73.2383 20.28 73.2983 19.73 73.4183 19.07C73.5583 18.41 73.7083 17.71 73.8683 16.97C74.0483 16.23 74.2183 15.49 74.3783 14.75C74.5583 14.01 74.7083 13.32 74.8283 12.68C74.9483 12.02 75.0083 11.47 75.0083 11.03C75.0083 10.57 74.9183 10.19 74.7383 9.89C74.5583 9.57 74.2383 9.41 73.7783 9.41C73.1783 9.41 72.6783 9.66 72.2783 10.16C71.8783 10.66 71.5483 11.27 71.2883 11.99C71.0483 12.71 70.8583 13.41 70.7183 14.09L69.0083 23L63.6383 23.54L66.7583 7.7L71.1383 7.16L70.6883 10.04C71.2283 9 71.9683 8.25 72.9083 7.79C73.8683 7.33 74.9183 7.1 76.0583 7.1C77.3583 7.1 78.3783 7.38 79.1183 7.94C79.8583 8.5 80.2283 9.4 80.2283 10.64C80.2283 11.16 80.1683 11.75 80.0483 12.41C79.9283 13.07 79.7783 13.77 79.5983 14.51C79.4383 15.23 79.2783 15.94 79.1183 16.64C78.9583 17.32 78.8183 17.96 78.6983 18.56C78.5783 19.14 78.5183 19.63 78.5183 20.03C78.5183 20.45 78.6083 20.8 78.7883 21.08C78.9883 21.36 79.3283 21.52 79.8083 21.56C79.5883 22.26 79.1383 22.77 78.4583 23.09C77.7983 23.43 77.0983 23.6 76.3583 23.6ZM87.905 23.6C86.685 23.6 85.605 23.38 84.665 22.94C83.745 22.5 83.025 21.83 82.505 20.93C81.985 20.01 81.725 18.84 81.725 17.42C81.725 16.12 81.905 14.86 82.265 13.64C82.645 12.42 83.215 11.32 83.975 10.34C84.755 9.34 85.745 8.55 86.945 7.97C88.145 7.39 89.565 7.1 91.205 7.1C92.065 7.1 92.855 7.21 93.575 7.43C94.315 7.63 94.915 8 95.375 8.54C95.835 9.06 96.065 9.81 96.065 10.79C96.065 11.81 95.765 12.69 95.165 13.43C94.585 14.17 93.725 14.75 92.585 15.17C91.465 15.59 90.095 15.84 88.475 15.92C88.215 15.92 87.945 15.92 87.665 15.92C87.405 15.92 87.155 15.92 86.915 15.92C86.895 16.16 86.875 16.41 86.855 16.67C86.835 16.91 86.825 17.13 86.825 17.33C86.825 18.21 87.015 18.9 87.395 19.4C87.775 19.88 88.435 20.12 89.375 20.12C90.155 20.12 90.925 19.95 91.685 19.61C92.445 19.27 93.015 18.77 93.395 18.11C93.675 18.27 93.865 18.47 93.965 18.71C94.085 18.93 94.145 19.2 94.145 19.52C94.145 20.32 93.855 21.03 93.275 21.65C92.715 22.27 91.955 22.75 90.995 23.09C90.055 23.43 89.025 23.6 87.905 23.6ZM87.095 14.57C87.795 14.57 88.425 14.47 88.985 14.27C89.565 14.07 90.065 13.79 90.485 13.43C90.905 13.05 91.225 12.6 91.445 12.08C91.665 11.56 91.775 10.98 91.775 10.34C91.775 9.82 91.675 9.42 91.475 9.14C91.295 8.84 90.985 8.69 90.545 8.69C90.165 8.69 89.795 8.82 89.435 9.08C89.075 9.34 88.745 9.72 88.445 10.22C88.165 10.72 87.905 11.34 87.665 12.08C87.445 12.8 87.255 13.63 87.095 14.57ZM96.1285 23.54L99.1885 7.7L103.569 7.16L103.119 10.04C103.559 9.1 104.159 8.38 104.919 7.88C105.699 7.36 106.609 7.1 107.649 7.1C108.789 7.1 109.649 7.4 110.229 8C110.829 8.58 111.129 9.4 111.129 10.46C111.129 11.66 110.779 12.66 110.079 13.46C109.379 14.24 108.469 14.63 107.349 14.63C107.029 14.63 106.709 14.59 106.389 14.51C106.069 14.43 105.819 14.29 105.639 14.09C105.979 13.67 106.249 13.13 106.449 12.47C106.669 11.79 106.779 11.19 106.779 10.67C106.779 10.31 106.709 10.01 106.569 9.77C106.449 9.53 106.209 9.41 105.849 9.41C105.509 9.41 105.189 9.53 104.889 9.77C104.609 10.01 104.359 10.35 104.139 10.79C103.919 11.21 103.719 11.72 103.539 12.32C103.359 12.92 103.209 13.58 103.089 14.3L101.649 23L96.1285 23.54ZM115.98 23.66C115.2 23.66 114.44 23.6 113.7 23.48C112.96 23.36 112.28 23.17 111.66 22.91C111.06 22.65 110.58 22.31 110.22 21.89C109.86 21.47 109.68 20.96 109.68 20.36C109.7 19.78 109.85 19.31 110.13 18.95C110.41 18.57 110.78 18.29 111.24 18.11C111.72 17.91 112.25 17.81 112.83 17.81C113.19 17.81 113.55 17.85 113.91 17.93C114.29 18.01 114.61 18.14 114.87 18.32C114.77 18.66 114.69 18.98 114.63 19.28C114.59 19.58 114.57 19.92 114.57 20.3C114.61 20.8 114.8 21.21 115.14 21.53C115.48 21.83 115.94 21.98 116.52 21.98C117.14 21.98 117.65 21.83 118.05 21.53C118.45 21.23 118.65 20.84 118.65 20.36C118.65 19.84 118.45 19.36 118.05 18.92C117.65 18.48 117.14 18.06 116.52 17.66C115.9 17.26 115.27 16.85 114.63 16.43C114.07 16.03 113.54 15.61 113.04 15.17C112.56 14.71 112.17 14.21 111.87 13.67C111.59 13.11 111.45 12.48 111.45 11.78C111.47 11 111.7 10.32 112.14 9.74C112.58 9.14 113.16 8.65 113.88 8.27C114.6 7.87 115.4 7.58 116.28 7.4C117.18 7.2 118.07 7.1 118.95 7.1C119.83 7.1 120.7 7.21 121.56 7.43C122.42 7.63 123.12 7.97 123.66 8.45C124.22 8.93 124.49 9.57 124.47 10.37C124.47 11.21 124.19 11.84 123.63 12.26C123.09 12.68 122.41 12.89 121.59 12.89C121.25 12.89 120.89 12.85 120.51 12.77C120.15 12.69 119.82 12.56 119.52 12.38C119.62 12.14 119.7 11.88 119.76 11.6C119.82 11.3 119.86 11.01 119.88 10.73C119.88 10.11 119.72 9.62 119.4 9.26C119.1 8.9 118.65 8.71 118.05 8.69C117.57 8.69 117.14 8.83 116.76 9.11C116.4 9.39 116.22 9.79 116.22 10.31C116.2 10.77 116.35 11.2 116.67 11.6C116.99 12 117.4 12.39 117.9 12.77C118.42 13.13 118.97 13.49 119.55 13.85C120.23 14.27 120.86 14.71 121.44 15.17C122.02 15.61 122.48 16.11 122.82 16.67C123.18 17.23 123.35 17.9 123.33 18.68C123.33 19.66 123.02 20.52 122.4 21.26C121.8 22 120.95 22.58 119.85 23C118.75 23.42 117.46 23.64 115.98 23.66Z" fill="url(#paint0_linear_23_397)" fill-opacity="0.933333"/>
<defs>
<linearGradient id="paint0_linear_23_397" x1="-4" y1="10" x2="125" y2="10" gradientUnits="userSpaceOnUse">
<stop stop-color="#7B54F2" stop-opacity="0.9"/>
<stop stop-color="#9900DD" stop-opacity="0.7"/>
<stop offset="0.75" stop-color="#FF667E" stop-opacity="0.9"/>
<stop offset="1" stop-color="#FFAB6F" stop-opacity="0.933333"/>
</linearGradient>
</defs>
</svg>
