<svg width="32" height="32" viewBox="0 0 32 32" fill="none" xmlns="http://www.w3.org/2000/svg">
<path d="M23.375 19.5C24.625 17.5333 25.3583 15.2 25.3583 12.6917C25.3583 5.68333 19.6833 0 12.6833 0C5.675 0 0 5.68333 0 12.6917C0 19.7 5.675 25.3833 12.675 25.3833C15.2167 25.3833 17.5833 24.6333 19.5667 23.35L20.1417 22.95L29.1917 32L32 29.1417L22.9583 20.0917L23.375 19.5ZM19.7833 5.6C21.675 7.49167 22.7167 10.0083 22.7167 12.6833C22.7167 15.3583 21.675 17.875 19.7833 19.7667C17.8917 21.6583 15.375 22.7 12.7 22.7C10.025 22.7 7.50833 21.6583 5.61667 19.7667C3.725 17.875 2.68333 15.3583 2.68333 12.6833C2.68333 10.0083 3.725 7.49167 5.61667 5.6C7.50833 3.70833 10.025 2.66667 12.7 2.66667C15.375 2.66667 17.8917 3.70833 19.7833 5.6Z" fill="black"/>
</svg>
