<svg width="58" height="42" viewBox="0 0 58 42" fill="none" xmlns="http://www.w3.org/2000/svg">
<path d="M19.375 21.0688C17.3209 22.8949 14.6404 23.9998 11.7078 23.9998C5.24178 23.9998 0 18.6271 0 11.9998C0 5.37234 5.24178 -0.000244141 11.7078 -0.000244141C17.7181 -0.000244141 22.6705 4.64142 23.339 10.618C24.3828 16.0486 24.3702 22.519 21.9803 28.318C19.4579 34.4389 14.3685 39.5947 5.67816 41.9263C4.5053 42.2413 3.30559 41.5219 2.99853 40.3195C2.69149 39.1174 3.39337 37.888 4.56621 37.5733C11.9742 35.5855 15.9584 31.366 17.9361 26.5669C18.6579 24.8149 19.123 22.9579 19.375 21.0688Z" fill="#A1A1A1"/>
<path d="M53.375 21.0688C51.3209 22.8949 48.6404 23.9998 45.7078 23.9998C39.2418 23.9998 34 18.6271 34 11.9998C34 5.37234 39.2418 -0.000244141 45.7078 -0.000244141C51.7181 -0.000244141 56.6705 4.64142 57.339 10.618C58.3828 16.0486 58.3702 22.519 55.9803 28.318C53.4579 34.4389 48.3685 39.5947 39.6782 41.9263C38.5053 42.2413 37.3056 41.5219 36.9985 40.3195C36.6915 39.1174 37.3934 37.888 38.5662 37.5733C45.9742 35.5855 49.9584 31.366 51.9361 26.5669C52.6579 24.8149 53.123 22.9579 53.375 21.0688Z" fill="#A1A1A1"/>
</svg>
